<svg xmlns="http://www.w3.org/2000/svg" width="1360.006" height="380" viewBox="0 0 1360.006 380" fill="none">
  <path d="M 660 0 C 661.67 0.33 663.33 0.67 665 1 C 684.04 10.47 665.73 71.48 660 86 C 646.72 119.65 626.85 146.1 606 172 C 598 179.33 590 186.663 582 194 C 573.59 205.69 566.63 262.05 566 281 C 584.71 277.23 602.35 269.49 624 266 C 642.33 266.33 660.663 266.663 679 267 C 684.67 243.67 690.337 220.337 696 197 C 703.9 165.65 704.59 130.65 704 93 C 696.29 93.96 690.21 94.23 685 91 C 684.67 88.67 684.33 86.33 684 84 C 691.94 74.41 739.1 39.09 754 44 C 759.9 48.23 758.44 49.19 766 51 L 766 52 C 759.98 72.56 734.69 71.16 725 87 C 720.35 94.6 715.52 152.68 712 169 C 717.17 170.39 716.63 169.86 717 176 C 710 196.55 689 273.8 701 283 C 707.67 280.33 714.337 277.663 721 275 C 719 254.51 739 232.53 747 216 C 761.74 185.56 773.37 151.42 784 118 C 788.26 104.62 786.14 94.68 794 82 L 805 74 C 813.38 62.25 803.44 40.51 819 36 C 819.33 37 819.67 38 820 39 C 818.67 47 817.337 55 816 63 C 815.76 75.92 818.34 94.25 815 109 C 810.8 107.46 812.55 109.18 811 105 L 810 105 C 807.3 131.46 792.88 178.96 805 205 C 805.67 204.67 806.33 204.33 807 204 C 813 194.67 819 185.337 825 176 C 837.67 149 850.337 122 863 95 C 868.33 81.57 872.51 51.26 884 44 L 889 44 C 890 44.67 891 45.33 892 46 C 890.33 58.33 888.663 70.663 887 83 C 887.33 82.33 887.67 81.67 888 81 C 891 73.33 894 65.663 897 58 L 898 58 C 889.43 113.76 859.63 193.04 870 257 C 875.06 288.2 868.42 321.26 890 335 C 893.71 334.26 893.89 334.53 897 336 C 896.7 341.59 895.98 341.84 894 345 L 893 345 C 848.02 337.38 855.57 206.36 864 157 C 865.67 141 867.337 125 869 109 C 868.33 109.33 867.67 109.67 867 110 C 861.69 136.39 823.71 208.7 801 216 C 799.67 214.33 798.33 212.67 797 211 C 783.74 182.33 806.57 131.01 798 107 L 797 107 C 791.53 167.12 746.87 224.99 728 273 C 734.81 273.17 735.38 273.87 738 278 C 732.63 286.42 705.55 296.77 695 299 C 696 304.1 697.38 307.8 696 313 C 695.33 312.67 694.67 312.33 694 312 C 692.59 307.36 691.73 305.53 687 304 C 685.33 310.33 683.663 316.663 682 323 C 680.33 322.67 678.67 322.33 677 322 L 677 312 C 675.67 313 674.33 314 673 315 C 672 317.67 671 320.33 670 323 C 657.38 322.29 658.37 332.6 645 334 L 645 332 L 644 331 C 648.54 310.3 670.08 311.32 673 287 C 636.66 268.93 597.72 292.33 567 307 C 555.19 312.64 535.6 326.23 521 319 L 521 306 C 525.97 298.68 540.95 291.89 550 289 C 555.67 262.34 561.337 235.673 567 209 L 566 209 C 559.78 212.63 556.24 217.13 548 219 C 547.33 218.67 546.67 218.33 546 218 C 548.95 203.87 566.59 201.32 572 190 C 576.33 174.67 580.663 159.337 585 144 C 597.76 111.81 609.93 78.52 627 50 C 631.94 41.75 663 6 663 6 L 658 6 L 646 12 C 648.67 9 651.337 6 654 3 L 660 0 Z M 1301 2 C 1302.67 2.67 1304.33 3.33 1306 4 C 1305.33 6 1304.67 8 1304 10 C 1292.92 11.81 1252.37 31.62 1248 39 C 1264.76 33.39 1350.84 4.91 1360 9 C 1360.83 22.53 1280.73 44.09 1263 49 C 1185.01 70.58 1143.17 75.66 1128 162 C 1142.38 159.27 1162.91 144.33 1180 151 C 1179.67 151.67 1179.33 152.33 1179 153 C 1159.77 161.03 1144.46 171.87 1122 178 C 1114.32 209.47 1098.88 237.02 1089 266 C 1114.91 259.78 1177.85 199.33 1209 233 C 1208.33 237.67 1207.663 242.337 1207 247 C 1196.27 255.33 1176.25 255.51 1159 248 C 1155.91 245.64 1156.7 246.47 1157 243 C 1128.91 254.28 1098.68 270.27 1077 289 C 1071.33 297.33 1065.663 305.663 1060 314 L 1056 314 C 1053.626 309.172 1050.954 304.496 1048 300 C 1052.59 291.11 1057.41 293.33 1062 287 C 1066 275.33 1070 263.663 1074 252 L 1104 183 L 1103 183 C 1098.35 184.92 1095.3 185.85 1090 185 C 1089.33 183 1088.67 181 1088 179 C 1094.05 175.15 1103.43 174.36 1110 170 C 1117.21 165.21 1130.87 119.14 1133 107 L 1132 107 C 1116 118.33 1100 129.663 1084 141 C 1088.33 145.67 1092.663 150.337 1097 155 C 1096.45 159.97 1097.19 158.87 1094 161 C 1090.57 162.81 1072.01 154.85 1067 154 C 1066.33 152.33 1065.67 150.67 1065 149 C 1068.54 139.63 1090.9 89.61 1104 107 C 1097.33 109.93 1089.02 118.44 1086 125 L 1087 125 C 1103.33 114.33 1119.663 103.663 1136 93 C 1140.34 89.62 1140.04 83.15 1145 80 C 1150.02 78.58 1150.39 81.99 1154 80 C 1158.92 78.51 1162.8 76.34 1165 72 L 1057 96 C 1051.67 114.66 1046.337 133.327 1041 152 C 1030.55 185.77 1024.03 217.15 1016 254 C 1012.75 268.91 1005.26 302.19 1013 319 C 1015.67 320.67 1018.337 322.337 1021 324 C 1024.83 320.59 1024.31 320.14 1029 322 L 1029 323 C 1027.28 337.1 1006 337.41 996 331 C 987.2 307.14 996.84 275.59 1003 254 C 1017.67 202.01 1032.337 150.01 1047 98 L 1047 97 C 1025.16 99.37 996.92 111.44 974 104 L 974 106 C 964.67 164.99 955.337 223.99 946 283 L 947 283 C 956.11 277.89 971.08 264.68 983 270 C 983.33 271 983.67 272 984 273 C 981.44 277.68 922.19 324.04 917 326 C 920.33 320.33 923.663 314.663 927 309 L 926 308 C 920.67 311.33 915.337 314.663 910 318 C 909 317.67 908 317.33 907 317 C 906.67 314.67 906.33 312.33 906 310 C 911 306.33 916 302.663 921 299 L 915 293 C 920.33 283 925.663 273 931 263 C 937.33 236 943.663 209 950 182 C 957.65 146.81 954.99 106.69 966 75 L 966 74 C 955.48 76.35 952.3 83.51 941 85 L 939 83 C 939.7 76.7 941.24 76.68 944 73 C 964.07 65.2 982.9 47.62 1007 45 C 1008 46.33 1009 47.67 1010 49 C 1004.83 61.55 987.85 57.98 981 68 C 979 78.33 977 88.663 975 99 C 986.77 95 1047.46 86.4 1052 80 C 1061.22 63.57 1060.99 30.82 1075 19 C 1079.96 20.01 1078.75 19.7 1081 23 C 1074.67 42 1068.337 61 1062 80 C 1109.66 70 1157.327 60 1205 50 C 1222.66 40 1240.327 30 1258 20 C 1272.333 14 1286.667 8 1301 2 Z M 661 20 C 631.07 60.46 598.61 115.28 588 173 L 589 173 C 593.67 168.67 598.337 164.337 603 160 C 611.33 149 619.663 138 628 127 C 646.94 97.14 658.11 63.14 664 20 L 661 20 Z M 148 28 C 151.33 28.67 154.67 29.33 158 30 C 158.33 31 158.67 32 159 33 C 156.26 38.51 159.32 42.55 156 48 L 125 70 C 108.39 82.55 56.45 131.19 59 155 L 60 155 C 101.02 138.65 206.99 131.02 184 203 C 169.86 247.28 108.37 291.81 74 319 C 60.33 332 46.663 345 33 358 C 23.95 353.38 23.79 358.71 16 365 C 13.92 371.86 14.63 374.33 9 380 C 1.86 379.7 2.26 378.89 0 374 C 19.56 327.66 108.52 272.83 146 235 C 157.8 223.09 188.9 191.91 171 168 C 137.95 123.87 49.81 184.79 26 171 C 24.57 149.64 40.89 135.42 51 122 C 79.2 84.58 112.81 58.36 148 28 Z M 244 156 C 266.06 155.25 277.63 157.43 287 169 C 284.43 182.76 241.58 176.56 242 166 L 238 166 C 239.71 186.14 199.21 242.89 217 268 C 228.71 248.88 276.6 245.38 288 233 L 343 111 C 348.05 99.43 349.86 77.1 360 71 C 363.15 70.13 363.18 70.7 366 72 C 366.33 72.67 366.67 73.33 367 74 C 365.33 80 363.663 86 362 92 C 367.57 90.44 367.44 88.12 371 85 C 373 85.67 375 86.33 377 87 C 382.34 118.35 358.4 182.7 370 213 C 371 212.33 372 211.67 373 211 C 385.05 171.38 413.46 129.37 437 99 C 445.64 87.85 455.94 71.26 476 75 C 476.33 76 476.67 77 477 78 C 477.33 79.67 477.67 81.33 478 83 C 468.67 97 459.337 111 450 125 C 427.42 163.13 411.71 208.69 402 259 C 395.47 292.85 396.73 340.66 416 358 C 444.41 351.07 449.24 307.17 470 291 C 473.07 292.49 473.22 292.11 475 295 C 477.85 303.55 433.09 390.03 403 366 C 386.01 352.43 380.74 303.3 386 272 C 398.12 199.86 419.67 145.65 454 97 L 453 96 C 412.7 128.43 407.15 195.55 370 231 C 367 230.33 364 229.67 361 229 C 353.74 207.92 356.04 170.7 360 146 C 360.67 138 361.337 130 362 122 C 361.33 122.33 360.67 122.67 360 123 C 343.34 155 326.673 187 310 219 C 302.67 235.33 295.337 251.663 288 268 L 287 268 C 287.33 266.67 287.67 265.33 288 264 C 285.67 266 283.337 268 281 270 C 279.33 269.33 277.67 268.67 276 268 C 276.33 265 276.67 262 277 259 C 254.66 263.25 221.3 273.95 206 287 C 204.67 286 203.33 285 202 284 C 190.33 291.67 178.663 299.337 167 307 C 166.67 306.33 166.33 305.67 166 305 C 169.33 301.33 172.663 297.663 176 294 C 175 293.67 174 293.33 173 293 L 167 296 C 166.33 295.67 165.67 295.33 165 295 L 165 292 C 201.17 269.6 203.99 202.08 223 161 C 230.53 144.72 245.32 127.88 250 108 C 233.82 111.23 207.13 126.36 198 138 C 200 140.67 202 143.337 204 146 C 202.63 147.9 203.03 147.64 201 149 C 196.46 150.24 190.25 147.3 188 143 C 186.948 141.774 186.291 140.26 186.112 138.654 C 185.934 137.049 186.243 135.427 187 134 C 199.48 108.58 238.37 106.84 260 90 C 268.51 83.37 279.5 55.03 288 45 L 291 45 C 291.67 46 292.33 47 293 48 C 291.67 51.33 290.337 54.663 289 58 L 290 58 C 293.87 55.06 297.81 50.65 303 52 C 304 52.67 305 53.33 306 54 C 305.67 55.33 305.33 56.67 305 58 C 297.89 61.27 291.73 69.31 288 76 L 288 77 L 289 77 C 322.02 62.1 358.78 51.08 397 42 C 408.87 39.18 432.96 35.25 439 45 C 439.33 46.67 439.67 48.33 440 50 C 437.67 52 435.337 54 433 56 C 417.33 56.67 401.663 57.337 386 58 C 345.75 67.93 309.69 85.22 273 96 C 272.8 110.67 246.01 132.01 244 156 Z M 715 88 C 714.33 89 713.67 90 713 91 C 713.33 92.33 713.67 93.67 714 95 L 716 95 C 716.67 93 717.33 91 718 89 L 718 88 L 715 88 Z M 44 151 C 42.33 154.33 40.663 157.663 39 161 L 40 161 C 41 160.33 42 159.67 43 159 L 45 159 C 45.42 154.14 46.5 153.73 44 151 Z M 1187 234 C 1181.67 235.67 1176.337 237.337 1171 239 L 1173 239 C 1176.45 242.49 1187.86 245.78 1194 243 C 1196.41 241.33 1196.55 240.58 1198 238 C 1197.33 237 1196.67 236 1196 235 C 1193 234.67 1190 234.33 1187 234 Z M 281 244 C 279 245.86 277.57 246.55 276 249 C 277.33 248.67 278.67 248.33 280 248 C 281.52 245.71 281.83 246.79 281 244 Z M 943 249 C 940.58 258.9 933.2 278.64 937 289 C 937.67 288.67 938.33 288.33 939 288 C 940.49 278.65 947.39 254.82 943 249 Z M 197 266 C 195.33 269.67 193.663 273.337 192 277 L 193 277 C 194 276.33 195 275.67 196 275 C 199.27 272.64 200 268.97 197 266 Z M 602 280 C 587.42 287.08 565.09 286.45 559 302 C 567.84 298.11 601.95 284.77 602 280 Z M 928 285 C 927.67 285.67 927.33 286.33 927 287 L 928 288 L 929 288 C 929.33 287 929.67 286 930 285 L 928 285 Z M 678 293 C 679.69 295.48 678.6 294.17 681 293 L 678 293 Z M 549 300 L 525 312 L 525 313 C 525.67 313.33 526.33 313.67 527 314 C 536.27 313.17 548.72 308.44 554 303 C 552.33 302 550.67 301 549 300 Z M 1011 325 C 1012.39 326.92 1011.1 325.6 1013 327 L 1011 325 Z" fill="currentColor" fill-rule="evenodd"></path>
</svg>