<svg xmlns="http://www.w3.org/2000/svg" width="2823.811" height="1430.813" viewBox="0 0 2823.811 1430.813" fill="none">
  <path d="M 2804.681 1430.603 L 2804.681 0 L 2823.811 0 L 2823.811 1430.6 L 2804.681 1430.6 L 2804.681 1430.603 Z M 2750.491 0.003 L 2763.241 0.003 L 2763.241 1430.603 L 2750.491 1430.603 L 2750.491 0 L 2750.491 0.003 Z M 2683.551 0.003 L 2731.361 0.003 L 2731.361 1430.603 L 2683.551 1430.603 L 2683.551 0 L 2683.551 0.003 Z M 2562.001 0.003 L 2636.801 0.003 L 2636.801 1430.603 L 2562.001 1430.603 L 2562.001 0 L 2562.001 0.003 Z M 2244.081 1073.503 C 2258.621 953.933 2273.157 834.37 2287.691 714.813 L 2244.081 714.813 L 2244.081 0 L 2533.941 0 L 2533.941 1430.6 L 2244.081 1430.6 L 2244.081 1073.5 L 2244.081 1073.503 Z M 2206.681 1381.163 L 2206.681 1430.603 L 2200.671 1430.603 C 2202.684 1414.123 2204.688 1397.643 2206.681 1381.163 Z M 2114.691 1077.813 L 2113.691 1077.813 C 2108.021 956.823 2102.354 835.823 2096.691 714.813 L 2094.481 714.813 L 2094.481 0 L 2206.681 0 L 2206.681 714.813 L 2129.691 714.813 C 2124.691 835.803 2119.691 956.803 2114.691 1077.813 Z M 2038.381 0 L 2075.781 0 L 2075.781 714.813 L 2038.381 714.813 L 2038.381 0 Z M 1908.691 1385.813 C 1908.691 1297.543 1911.871 1167.273 1848.691 1145.813 C 1860.591 1136.653 1870.851 1130.053 1878.691 1116.813 C 1928.541 1032.613 1918.621 775.763 1850.691 724.813 C 1840.111 716.873 1823.181 714.833 1804.621 714.493 L 1804.621 0 L 1991.621 0 L 1991.621 714.813 L 1939.691 714.813 C 1957.001 858.753 1974.311 1002.703 1991.621 1146.663 L 1991.621 1430.603 L 1908.211 1430.603 L 1908.691 1385.813 Z M 1692.411 0 L 1748.521 0 L 1748.521 714.813 L 1692.411 714.813 L 1692.411 0 Z M 1572.691 1430.603 L 1532.721 1430.603 C 1541.591 1392.773 1537.691 1341.053 1537.691 1296.813 L 1537.691 902.813 C 1537.691 839.163 1544.121 765.423 1516.691 728.813 C 1513.727 724.977 1509.849 721.945 1505.411 719.993 L 1505.411 0 L 1655.011 0 L 1655.011 714.813 L 1572.691 714.813 L 1572.691 1430.603 Z M 1402.551 714.813 L 1402.551 0 L 1458.651 0 L 1458.651 714.283 C 1449.691 714.453 1440.531 714.813 1431.691 714.813 L 1402.551 714.813 Z M 1281.001 0 L 1383.851 0 L 1383.851 714.813 L 1281.001 714.813 L 1281.001 0 Z M 1204.691 1430.603 L 1172.211 1430.603 L 1172.691 1385.813 C 1172.691 1297.543 1175.871 1167.273 1112.691 1145.813 C 1124.591 1136.653 1134.851 1130.053 1142.691 1116.813 C 1192.541 1032.613 1182.621 775.763 1114.691 724.813 C 1098.391 712.593 1067.051 714.353 1037.891 714.753 L 1037.891 0 L 1262.301 0 L 1262.301 714.813 L 1204.691 714.813 L 1204.691 1430.603 Z M 850.881 0.003 L 1019.191 0.003 L 1019.191 714.813 L 850.881 714.813 L 850.881 0 L 850.881 0.003 Z M 719.978 1411.643 C 748.214 1179.383 776.452 947.106 804.691 714.813 L 719.978 714.813 L 719.978 0 L 822.831 0 L 822.831 1430.6 L 719.978 1430.6 L 719.978 1411.64 L 719.978 1411.643 Z M 631.691 1077.813 L 630.691 1077.813 C 626.169 981.263 621.647 884.7 617.124 788.123 L 617.124 0 L 691.924 0 L 691.924 714.813 L 646.691 714.813 C 641.691 835.803 636.691 956.803 631.691 1077.813 Z M 542.773 1430.603 L 430.117 1430.603 L 430.117 0 L 561.017 0 L 561.017 714.813 L 456.691 714.813 C 485.382 953.383 514.076 1191.98 542.773 1430.603 Z M 318.691 714.813 L 215.059 714.813 L 215.059 0 L 402.066 0 L 402.066 728.513 C 399.348 725.203 396.194 722.277 392.691 719.813 C 378.591 709.973 341.145 714.813 318.691 714.813 Z M 103.691 747.813 C 97.691 762.593 95.458 781.353 94.714 801.573 C 93.985 821.383 94.689 842.593 94.691 862.813 L 94.691 1329.813 C 94.691 1365.803 93.453 1401.723 99.6 1430.603 L 0 1430.603 L 0 0 L 177.658 0 L 177.658 714.813 L 133.691 714.813 C 119.03 723.633 110.419 731.233 103.691 747.813 Z M 999.691 1241.813 C 1012.001 1248.543 1007.691 1283.353 1007.691 1301.813 L 1007.691 1430.603 L 990.691 1430.603 L 990.691 1327.813 C 990.691 1300.163 988.561 1267.993 993.691 1244.813 L 999.691 1241.813 Z M 1735.691 1241.813 C 1748.001 1248.543 1743.691 1283.353 1743.691 1301.813 L 1743.691 1430.603 L 1726.691 1430.603 L 1726.691 1327.813 C 1726.691 1300.163 1724.561 1267.993 1729.691 1244.813 L 1735.691 1241.813 Z M 1363.691 923.813 C 1366.691 924.143 1369.691 924.483 1372.691 924.813 C 1386.361 931.983 1382.691 973.513 1382.691 993.813 L 1382.691 1199.813 C 1382.691 1220.713 1387.911 1268.443 1374.691 1276.813 C 1371.021 1277.143 1367.361 1277.483 1363.691 1277.813 L 1363.691 923.813 Z M 254.691 927.813 L 261.691 927.813 L 262.691 930.813 C 270.445 943.373 265.691 996.653 265.691 1016.813 L 265.691 1183.813 C 265.691 1210.083 268.565 1243.393 262.691 1264.813 C 242.178 1269.273 249.691 1208.883 249.691 1188.813 L 249.691 1005.813 C 249.691 981.203 245.337 944.453 254.691 927.813 Z M 996.691 927.813 C 999.691 928.483 1002.691 929.143 1005.691 929.813 C 1010.831 952.053 1012.831 1054.453 1003.691 1070.813 C 1000.691 1070.143 997.691 1069.483 994.691 1068.813 C 986.921 1040.693 987.661 962.043 993.691 931.813 C 994.691 930.483 995.691 929.143 996.691 927.813 Z M 1732.691 927.813 C 1735.691 928.483 1738.691 929.143 1741.691 929.813 C 1746.831 952.053 1748.831 1054.453 1739.691 1070.813 C 1736.691 1070.143 1733.691 1069.483 1730.691 1068.813 C 1722.921 1040.693 1723.661 962.043 1729.691 931.813 C 1730.691 930.483 1731.691 929.143 1732.691 927.813 Z M 990.691 1430.813 C 990.421 1392.453 983.321 1265.073 995.691 1242.813 C 998.021 1243.143 1000.361 1243.483 1002.691 1243.813 C 1004.611 1245.203 1003.291 1243.913 1004.691 1245.813 C 1008.921 1253.673 1005.091 1267.943 1006.691 1278.813 L 1006.691 1430.813 L 990.691 1430.813 Z M 1726.691 1430.813 C 1726.421 1392.453 1719.321 1265.073 1731.691 1242.813 C 1734.021 1243.143 1736.361 1243.483 1738.691 1243.813 C 1740.611 1245.203 1739.291 1243.913 1740.691 1245.813 C 1744.921 1253.673 1741.091 1267.943 1742.691 1278.813 L 1742.691 1430.813 L 1726.691 1430.813 Z M 2358.191 715.813 C 2363.234 715.813 2368.165 717.308 2372.358 720.11 C 2376.551 722.912 2379.82 726.895 2381.75 731.555 C 2383.68 736.214 2384.185 741.341 2383.201 746.288 C 2382.217 751.234 2379.788 755.778 2376.222 759.344 C 2372.656 762.91 2368.112 765.339 2363.166 766.323 C 2358.219 767.307 2353.092 766.802 2348.432 764.872 C 2343.773 762.942 2339.791 759.673 2336.989 755.48 C 2334.187 751.286 2332.691 746.356 2332.691 741.313 C 2332.691 734.55 2335.377 728.064 2340.16 723.282 C 2344.942 718.5 2351.428 715.813 2358.191 715.813 Z M 49.691 714.813 L 139.73 714.763 L 94.73 792.773 L 49.691 714.813 Z M 1158.691 714.813 L 1248.731 714.763 L 1203.721 792.773 L 1158.691 714.813 Z" fill="currentColor" fill-rule="evenodd"></path>
</svg>